<?xml version="1.0" encoding="UTF-8"?>
<svg width="24px" height="24px" viewBox="0 0 24 24" version="1.1" xmlns="http://www.w3.org/2000/svg" xmlns:xlink="http://www.w3.org/1999/xlink">
    <!-- Generator: Sketch 63.1 (92452) - https://sketch.com -->
    <title>icon/icon_option_weibo</title>
    <desc>Created with Sketch.</desc>
    <g id="icon/icon_option_weibo" stroke="none" stroke-width="1" fill="none" fill-rule="evenodd">
        <rect id="矩形" x="0" y="0" width="24" height="24"></rect>
        <path d="M11.88,7 C13.0711111,7 13.3244444,8.25 12.64,10.75 C15.1022222,9.58333333 16.8755556,9.33333333 17.96,10 C18.6533333,10.6666667 18.6533333,11.6666667 17.96,13 C19.9866667,13.4444444 21,14.4444444 21,16 C21,19 16,22 10.36,22 C4.66666667,22 2,19.3333333 2,16 C2,10 9.66666667,7 11.88,7 Z M11.1818182,12 C7.10909091,12 5,14.7391304 5,16.6956522 C5,18.9565217 6.8,21 10.4545455,21 C15.4545455,21 17,17.9130435 17,16.6956522 C17,15.1304348 15.7636364,12 11.1818182,12 Z M9.5,14 C11.4329966,14 13,15.3431458 13,17 C13,18.6568542 11.4329966,20 9.5,20 C7.56700338,20 6,18.6568542 6,17 C6,15.3431458 7.56700338,14 9.5,14 Z M8,18 C8.55228475,18 9,17.5522847 9,17 C9,16.4477153 8.55228475,16 8,16 C7.44771525,16 7,16.4477153 7,17 C7,17.5522847 7.44771525,18 8,18 Z M9.5,16 C9.77614237,16 10,15.7761424 10,15.5 C10,15.2238576 9.77614237,15 9.5,15 C9.22385763,15 9,15.2238576 9,15.5 C9,15.7761424 9.22385763,16 9.5,16 Z" id="形状结合" fill="#666666"></path>
        <path d="M16,6 C16.8,6 18,6.8 18,8" id="路径-7" stroke="#666666" stroke-width="2" stroke-linecap="round" stroke-linejoin="round"></path>
        <path d="M16,3 C19,3 21,4.19047619 21,8" id="路径-8" stroke="#666666" stroke-width="2" stroke-linecap="round" stroke-linejoin="round"></path>
    </g>
</svg>