<?xml version="1.0" encoding="UTF-8"?>
<svg width="24px" height="24px" viewBox="0 0 24 24" version="1.1" xmlns="https://www.w3.org/2000/svg" xmlns:xlink="https://www.w3.org/1999/xlink">
    <!-- Generator: Sketch 63.1 (92452) - https://sketch.com -->
    <title>icon/icon_option_apple</title>
    <desc>Created with Sketch.</desc>
    <g id="icon/icon_option_apple" stroke="none" stroke-width="1" fill="none" fill-rule="evenodd">
        <g>
            <rect id="矩形" x="0" y="0" width="24" height="24"></rect>
            <path d="M3,13.1111111 C3,17.5555556 5.7,22 8.4,22 C11.1,22 10.2,21.1111111 12,21.1111111 C13.8,21.1111111 12.9,22 15.6,22 C17.4,22 19.2,20.2222222 21,16.6666667 C18.6,15.4814815 17.4,14 17.4,12.2222222 C17.4,10.4444444 18.3,9.25925926 20.1,8.66666667 C18.9,6.88888889 17.4,6 15.6,6 C13.8,6 13.8,6.88888889 12,6.88888889 C10.2,6.88888889 9.3,6 7.5,6 C5.7,6 3,8.66666667 3,13.1111111 Z" id="路径-21" fill="#666666"></path>
            <path d="M12,5 C12,3.4 13,1 16,1 C16,3.4 15,5 12,5 Z" id="路径-22" fill="#666666"></path>
        </g>
    </g>
</svg>
