<?xml version="1.0" encoding="UTF-8"?>
<svg width="24px" height="24px" viewBox="0 0 24 24" version="1.1" xmlns="http://www.w3.org/2000/svg" xmlns:xlink="http://www.w3.org/1999/xlink">
    <!-- Generator: Sketch 63.1 (92452) - https://sketch.com -->
    <title>icon/icon_option_android</title>
    <desc>Created with Sketch.</desc>
    <g id="icon/icon_option_android" stroke="none" stroke-width="1" fill="none" fill-rule="evenodd">
        <g>
            <rect id="矩形" x="0" y="0" width="24" height="24"></rect>
            <path d="M18,9 L18,17 C18,18.1045695 17.1045695,19 16,19 L16,21 C16,21.5522847 15.5522847,22 15,22 C14.4477153,22 14,21.5522847 14,21 L14,19 L10,19 L10,21 C10,21.5522847 9.55228475,22 9,22 C8.44771525,22 8,21.5522847 8,21 L8,19 C6.8954305,19 6,18.1045695 6,17 L6,9 L18,9 Z M4.5,10 C4.77614237,10 5,10.2238576 5,10.5 L5,15.5 C5,15.7761424 4.77614237,16 4.5,16 C4.22385763,16 4,15.7761424 4,15.5 L4,10.5 C4,10.2238576 4.22385763,10 4.5,10 Z M19.5,10 C19.7761424,10 20,10.2238576 20,10.5 L20,15.5 C20,15.7761424 19.7761424,16 19.5,16 C19.2238576,16 19,15.7761424 19,15.5 L19,10.5 C19,10.2238576 19.2238576,10 19.5,10 Z M7.43933983,2.14644661 C7.63460197,1.95118446 7.95118446,1.95118446 8.14644661,2.14644661 L8.14644661,2.14644661 L9.54864406,3.54864421 C10.2645664,3.32095259 11.0816851,3.20710678 12,3.20710678 C12.9183149,3.20710678 13.7354336,3.32095259 14.4513559,3.54864421 L15.8535534,2.14644661 C16.0488155,1.95118446 16.365398,1.95118446 16.5606602,2.14644661 C16.7559223,2.34170876 16.7559223,2.65829124 16.5606602,2.85355339 L15.4424955,3.971769 C16.7556449,4.69865277 17.6081464,5.94376536 18,7.70710678 L18,7.70710678 L6,7.70710678 C6.39185365,5.94376536 7.24435514,4.69865277 8.55750448,3.971769 L7.43933983,2.85355339 C7.24407768,2.65829124 7.24407768,2.34170876 7.43933983,2.14644661 Z M9.5,5 L8.5,5 C8.22385763,5 8,5.22385763 8,5.5 C8,5.77614237 8.22385763,6 8.5,6 L8.5,6 L9.5,6 C9.77614237,6 10,5.77614237 10,5.5 C10,5.22385763 9.77614237,5 9.5,5 L9.5,5 Z M15.5,5 L14.5,5 C14.2238576,5 14,5.22385763 14,5.5 C14,5.77614237 14.2238576,6 14.5,6 L14.5,6 L15.5,6 C15.7761424,6 16,5.77614237 16,5.5 C16,5.22385763 15.7761424,5 15.5,5 L15.5,5 Z" id="形状结合" fill="#666666"></path>
        </g>
    </g>
</svg>