<?xml version="1.0" encoding="UTF-8"?>
<svg width="24px" height="24px" viewBox="0 0 24 24" version="1.1" xmlns="http://www.w3.org/2000/svg" xmlns:xlink="http://www.w3.org/1999/xlink">
    <!-- Generator: Sketch 63.1 (92452) - https://sketch.com -->
    <title>icon/icon_option_moment</title>
    <desc>Created with Sketch.</desc>
    <g id="icon/icon_option_moment" stroke="none" stroke-width="1" fill="none" fill-rule="evenodd">
        <rect id="矩形" x="0" y="0" width="24" height="24"></rect>
        <path d="M9.66784739,15.2501508 L15.7070543,21.2903713 C14.5606918,21.7482013 13.3097513,22 12,22 C10.9548381,22 9.9471258,21.8396596 9.00011922,21.5422352 L8.99994303,14.6457598 C9.19899254,14.8712912 9.42307683,15.0742044 9.66784739,15.2501508 Z M8.00489531,11.8003597 L8,12 L8.00059079,21.1681707 C5.81732392,20.2144295 4.04044806,18.5036773 3.00172675,16.3676779 L8.05940645,11.3093391 C8.03145561,11.4699278 8.01308189,11.6338047 8.00489531,11.8003597 Z M12,16 L21.1677323,16.0004128 C20.2601792,18.0773236 18.6675411,19.7863851 16.675469,20.841946 L11.8291559,15.9964174 C11.8858072,15.9987978 11.9427632,16 12,16 Z M8.953,9 L2.58273042,15.3718734 C2.20549062,14.3184048 2,13.1831999 2,12 C2,10.9548381 2.16034037,9.9471258 2.45776484,9.00011922 L8.953,9 Z M21.4591556,8.74748779 C21.8096948,9.76716284 22,10.8613573 22,12 C22,13.0455304 21.8395465,14.0535849 21.5419205,15.0008825 L15.207,15 Z M16.0004128,2.83226775 C18.2206395,3.80244587 20.0204989,5.55551892 21.0510318,7.74252783 L15.8997357,12.8939235 C15.9653471,12.6065057 16,12.3072996 16,12 Z M12,2 C13.0455304,2 14.0535849,2.16045347 15.0008825,2.45807951 L15,9.167 L8.47318038,2.63967375 C9.4872687,2.25739138 10.5798419,2.03517917 11.7200952,2.0038418 Z M7.49017674,3.07225659 L12.4428497,8.02423682 C12.2974379,8.00822125 12.149679,8 12,8 L9.955,8 L9.95495129,8 L9.953,8 L2.83182926,8.00059079 C3.76431937,5.86597127 5.42046088,4.11983418 7.49017674,3.07225659 Z" id="形状结合" fill="#666666"></path>
    </g>
</svg>