<?xml version="1.0" encoding="UTF-8"?>
<svg width="20px" height="20px" viewBox="0 0 20 20" version="1.1" xmlns="http://www.w3.org/2000/svg" xmlns:xlink="http://www.w3.org/1999/xlink">
    <!-- Generator: Sketch 63.1 (92452) - https://sketch.com -->
    <title>icon/icon_qr</title>
    <desc>Created with Sketch.</desc>
    <g id="icon/icon_qr" stroke="none" stroke-width="1" fill="none" fill-rule="evenodd">
        <rect id="矩形" x="0" y="0" width="20" height="20"></rect>
        <rect id="矩形" stroke="#000000" stroke-width="2" x="1" y="1" width="6" height="6" rx="2"></rect>
        <rect id="矩形备份" stroke="#000000" stroke-width="2" x="13" y="1" width="6" height="6" rx="2"></rect>
        <rect id="矩形备份-3" stroke="#000000" stroke-width="2" x="1" y="13" width="6" height="6" rx="2"></rect>
        <rect id="矩形" stroke="#000000" x="0.5" y="9.5" width="19" height="1"></rect>
        <rect id="矩形" stroke="#000000" x="9.5" y="13.5" width="1" height="6"></rect>
        <rect id="矩形" stroke="#000000" x="15.5" y="18.5" width="4" height="1"></rect>
        <polyline id="路径-20" stroke="#000000" stroke-width="2" points="13 20 13 14 16 14 16 16 19 16 19 13"></polyline>
        <rect id="矩形" stroke="#000000" x="3.5" y="15.5" width="1" height="1"></rect>
        <rect id="矩形" stroke="#000000" x="9.5" y="0.5" width="1" height="7"></rect>
        <rect id="矩形" stroke="#000000" x="3.5" y="3.5" width="1" height="1"></rect>
        <rect id="矩形" stroke="#000000" x="15.5" y="3.5" width="1" height="1"></rect>
    </g>
</svg>