<?xml version="1.0" encoding="UTF-8"?>
<svg width="24px" height="24px" viewBox="0 0 24 24" version="1.1" xmlns="http://www.w3.org/2000/svg" xmlns:xlink="http://www.w3.org/1999/xlink">
    <!-- Generator: Sketch 63.1 (92452) - https://sketch.com -->
    <title>icon/icon_option_wechat</title>
    <desc>Created with Sketch.</desc>
    <g id="icon/icon_option_wechat" stroke="none" stroke-width="1" fill="none" fill-rule="evenodd">
        <rect id="矩形" x="0" y="0" width="24" height="24"></rect>
        <g id="编组-6" transform="translate(1.000000, 3.000000)" fill="#666666">
            <path d="M8.5,0 C13.1944204,0 17,3.13400675 17,7 C17,7.08279444 16.9982546,7.16525315 16.9947924,7.24735254 C16.3628172,7.08636076 15.6931748,7 15,7 C11.1340068,7 8,9.6862915 8,13 C8,13.3379134 8.03258983,13.6693023 8.09522235,13.9919837 C7.1878499,13.9572236 6.31710886,13.8048976 5.50546442,13.5532401 L1,15 L2.05448457,11.5635596 C0.774007181,10.338133 0,8.74350493 0,7 C0,3.13400675 3.80557963,0 8.5,0 Z M6,4 C5.44771525,4 5,4.44771525 5,5 C5,5.55228475 5.44771525,6 6,6 C6.55228475,6 7,5.55228475 7,5 C7,4.44771525 6.55228475,4 6,4 Z M11,4 C10.4477153,4 10,4.44771525 10,5 C10,5.55228475 10.4477153,6 11,6 C11.5522847,6 12,5.55228475 12,5 C12,4.44771525 11.5522847,4 11,4 Z" id="形状结合"></path>
            <path d="M15,8 C18.3137085,8 21,10.4624339 21,13.5 C21,14.8167865 20.4951848,16.0254927 19.6532798,16.9723701 L20,19 L17.3556339,18.5599251 C16.6324299,18.8431997 15.8361909,19 15,19 C11.6862915,19 9,16.5375661 9,13.5 C9,10.4624339 11.6862915,8 15,8 Z M13,11 C12.4477153,11 12,11.4477153 12,12 C12,12.5522847 12.4477153,13 13,13 C13.5522847,13 14,12.5522847 14,12 C14,11.4477153 13.5522847,11 13,11 Z M17,11 C16.4477153,11 16,11.4477153 16,12 C16,12.5522847 16.4477153,13 17,13 C17.5522847,13 18,12.5522847 18,12 C18,11.4477153 17.5522847,11 17,11 Z" id="形状结合"></path>
        </g>
    </g>
</svg>