<?xml version="1.0" encoding="UTF-8"?>
<svg width="100px" height="100px" viewBox="0 0 100 100" version="1.1" xmlns="https://www.w3.org/2000/svg" xmlns:xlink="https://www.w3.org/1999/xlink">
    <!-- Generator: Sketch 63.1 (92452) - https://sketch.com -->
    <title>icon/icon_none</title>
    <desc>Created with Sketch.</desc>
    <defs>
        <rect id="path-1" x="0" y="0" width="100.595238" height="100"></rect>
    </defs>
    <g id="icon/icon_none" stroke="none" stroke-width="1" fill="none" fill-rule="evenodd">
        <g id="编组-4">
            <mask id="mask-2" fill="white">
                <use xlink:href="#path-1"></use>
            </mask>
            <g id="蒙版"></g>
            <g mask="url(#mask-2)">
                <g transform="translate(50.000000, 50.000000) rotate(-45.000000) translate(-50.000000, -50.000000) ">
                    <path d="M50,0 C77.6142375,0 100,22.3857625 100,50 C100,77.6142375 77.6142375,100 50,100 C22.3857625,100 0,77.6142375 0,50 C0,22.3857625 22.3857625,0 50,0 Z M50,5.95238095 C25.6731717,5.95238095 5.95238095,25.6731717 5.95238095,50 C5.95238095,74.3268283 25.6731717,94.047619 50,94.047619 C74.3268283,94.047619 94.047619,74.3268283 94.047619,50 C94.047619,25.6731717 74.3268283,5.95238095 50,5.95238095 Z" id="形状结合" fill="#E6E6E6"></path>
                    <g id="编组-2" stroke-width="1" fill="none" transform="translate(0.000000, 36.904762)">
                        <path d="M97.0238095,0 L100,13.0952381 L97.0238095,26.1904762 L2.97619048,26.1904762 L0,13.6904762 L2.97619048,0 L97.0238095,0 Z M44.15,6.5547619 C41.0428571,6.5547619 38.1714286,8.91190476 38.1714286,12.9619048 C38.1714286,16.9904762 41.0428571,19.347619 44.15,19.347619 C47.2357143,19.347619 50.1071429,16.9904762 50.1071429,12.9619048 C50.1071429,8.91190476 47.2357143,6.5547619 44.15,6.5547619 Z M71.7071429,6.5547619 C68.75,6.5547619 65.9214286,8.99761905 65.9214286,12.9619048 C65.9214286,16.9904762 68.6214286,19.347619 72.1142857,19.347619 C73.55,19.347619 75.2214286,18.8547619 76.4857143,17.9547619 L75.2214286,15.6619048 C74.3428571,16.1761905 73.5285714,16.4333333 72.65,16.4333333 C71.1071429,16.4333333 69.95,15.747619 69.6071429,14.0761905 L76.7642857,14.0761905 C76.85,13.797619 76.9357143,13.1119048 76.9357143,12.447619 C76.9357143,9.1047619 75.2214286,6.5547619 71.7071429,6.5547619 Z M32.1071429,6.5547619 C30.4571429,6.5547619 29.2142857,7.39047619 28.2071429,8.37619048 L28.1214286,8.37619048 L27.8642857,6.8547619 L24.7571429,6.8547619 L24.7571429,19.047619 L28.55,19.047619 L28.55,10.9047619 C29.3,10.197619 29.8142857,9.81190476 30.6714286,9.81190476 C31.6357143,9.81190476 32.0857143,10.3047619 32.0857143,11.9761905 L32.0857143,19.047619 L35.9,19.047619 L35.9,11.5047619 C35.9,8.46190476 34.7642857,6.5547619 32.1071429,6.5547619 Z M59.8571429,6.5547619 C58.2071429,6.5547619 56.9642857,7.39047619 55.9571429,8.37619048 L55.8714286,8.37619048 L55.6142857,6.8547619 L52.5071429,6.8547619 L52.5071429,19.047619 L56.3,19.047619 L56.3,10.9047619 C57.05,10.197619 57.5642857,9.81190476 58.4214286,9.81190476 C59.3857143,9.81190476 59.8357143,10.3047619 59.8357143,11.9761905 L59.8357143,19.047619 L63.65,19.047619 L63.65,11.5047619 C63.65,8.46190476 62.5142857,6.5547619 59.8571429,6.5547619 Z M44.15,9.64047619 C45.5642857,9.64047619 46.2071429,10.9261905 46.2071429,12.9619048 C46.2071429,14.9761905 45.5642857,16.2619048 44.15,16.2619048 C42.7142857,16.2619048 42.0714286,14.9761905 42.0714286,12.9619048 C42.0714286,10.9261905 42.7142857,9.64047619 44.15,9.64047619 Z M71.7714286,9.46904762 C73.1642857,9.46904762 73.7,10.3690476 73.7,11.5904762 L69.5428571,11.5904762 C69.8,10.1333333 70.7214286,9.46904762 71.7714286,9.46904762 Z" id="形状结合" fill="#E6E6E6"></path>
                    </g>
                </g>
            </g>
        </g>
    </g>
</svg>
