<svg xmlns="http://www.w3.org/2000/svg" xmlns:xlink="http://www.w3.org/1999/xlink" viewBox="0 0 566.93 566.93"><defs><style>.cls-1{fill:none;}.cls-2{fill:#ec6617;}.cls-3{fill:url(#未命名的渐变_10);}.cls-4{fill:url(#未命名的渐变_13);}</style><linearGradient id="未命名的渐变_10" x1="261.94" y1="176.82" x2="334.17" y2="308.53" gradientTransform="translate(-0.2 -0.42) rotate(-0.02)" gradientUnits="userSpaceOnUse"><stop offset="0" stop-color="#fff"/><stop offset="0.31" stop-color="#cecece"/><stop offset="0.62" stop-color="#a2a2a2"/><stop offset="0.86" stop-color="#878787"/><stop offset="1" stop-color="#7d7d7d"/></linearGradient><linearGradient id="未命名的渐变_13" x1="242.51" y1="238.99" x2="401.67" y2="238.99" gradientTransform="translate(-0.2 -0.42) rotate(-0.02)" gradientUnits="userSpaceOnUse"><stop offset="0" stop-color="#fff"/><stop offset="0.21" stop-color="#c1c1c1"/><stop offset="0.4" stop-color="#909090"/><stop offset="0.5" stop-color="#7d7d7d"/></linearGradient></defs><g id="图层_2" data-name="图层 2"><g id="图层_1-2" data-name="图层 1"><rect class="cls-1" width="566.93" height="566.93"/><polygon class="cls-2" points="353.64 102.85 253.37 140.4 243.4 102.88 353.64 102.85"/><polygon class="cls-2" points="406.08 242.4 262.37 149.6 381.6 104.94 406.08 242.4"/><polygon class="cls-3" points="401.56 253.5 242.42 318.45 254.49 158.51 401.56 253.5"/><path class="cls-4" d="M256.05,161.67l141.63,91.47L244.43,315.69l11.62-154m-1.56-3.16L242.42,318.45,401.56,253.5l-147.07-95Z"/><polygon class="cls-2" points="242.53 160.35 231.13 311.58 160.85 219.06 242.53 160.35"/><polygon class="cls-2" points="242.63 145.79 176.57 193.27 233.33 110.86 242.63 145.79"/><path d="M124.41,375.67c3.9,10.86,10.86,19.61,21.9,23.87a37.29,37.29,0,0,0-6.47,8.28C129.28,403,122.68,395,118.05,384.37c-3.41,9.24-9.77,17.58-21.58,23.46a27.13,27.13,0,0,0-6.6-7.43c13.13-5.95,18.65-14.95,21-24.72H91.06v-9.05h21.29c.42-5.28.36-10.56.41-15.54h9.6c-.06,5-.11,10.26-.59,15.54h23v9.06Z"/><path d="M201,378.53c-2.16,1.68-4.56,3.36-6.9,5,2.16,6.47,6.36,12.05,12.9,14.75a29.58,29.58,0,0,0-5.69,7.14c-7-3.48-11.28-9.6-14.11-17.51l-1.2.72c1.45,7,.07,13.55-2.93,16.25-2.22,2.4-4.32,3.13-7.68,3.19-1.37.06-3.05,0-4.73-.06a18,18,0,0,0-2.23-7.86,108,108,0,0,1-13.91,5.58,32.64,32.64,0,0,0-4.5-7.19c9.48-2,20.87-6.91,26.87-11.77a10.82,10.82,0,0,0-.48-1.26,104.41,104.41,0,0,1-21.35,9.43,36.64,36.64,0,0,0-4.26-6.66c7.37-1.44,17-4.92,22.25-8.22-.3-.36-.6-.72-1-1.08a83.65,83.65,0,0,1-16.26,5.88,44.74,44.74,0,0,0-4.38-6.78,71,71,0,0,0,17.93-5.46h-8.27v-7.32h33.23v7.32H181.87a24.06,24.06,0,0,1-3.24,2.53,24.6,24.6,0,0,1,4.74,6.29,87.86,87.86,0,0,0,10.44-8.64Zm-41-8.63h-8.52v-14.4h21.42c-.36-.9-.72-1.8-1.08-2.58l9.29-2.64a37.57,37.57,0,0,1,2.4,5.22h20.88v14.4h-8.93v-6.54H160Zm16.62,28.61a6.86,6.86,0,0,0,1.26-3.72,79,79,0,0,1-8.94,5c1.86.18,3.42.24,4.74.24A2.82,2.82,0,0,0,176.66,398.51Z"/><path d="M265.43,398.3H246.36V408H237v-9.72H210.31V389.8h26.63v-5.22H224.82c-3.06,0-6.66.36-7.2,1a80,80,0,0,0-3.24-8.94c1.86-.6,3-1.92,4.8-4.5a34.71,34.71,0,0,0,2.58-4.32h-10v-8.4h14.09a89.49,89.49,0,0,0,3.36-9.05l10.32,2.57c-.9,2.16-1.86,4.38-2.88,6.48h27.53v8.4h-32c-1.79,3.06-3.65,5.94-5.45,8.52h10.26v-7.14h9.42v7.14h13.86v8.27H246.35v5.22h19.07Z"/><path d="M291.22,379.52a8.4,8.4,0,1,1-8.4-8.4A8.42,8.42,0,0,1,291.22,379.52Z"/><path d="M309.39,380.35c-2.28-1.62-7.2-4.2-10.43-5.93l4.61-6.48c3.12,1.37,8.16,3.71,10.68,5.21Zm-8.33,21a172.53,172.53,0,0,0,10.67-18.72l6.6,5.64C315.4,394.56,312,401,308.62,407Zm11.57-37a74.71,74.71,0,0,0-10.2-6.17l4.86-6.36a78.83,78.83,0,0,1,10.43,5.45Zm12,3.36a40.94,40.94,0,0,1-3.71,4.56,55.94,55.94,0,0,0-6.9-5.4c4.26-3.78,8.09-10,10.19-16l8.28,2.22c-.48,1.2-1,2.46-1.56,3.66h25.31v7.44H327c-.48.72-.9,1.44-1.38,2.16h25v7h-26Zm25.44,7.91c-.18,14.63-.29,24.29,1.21,24.29.6,0,.84-3.18.89-7.5a32.29,32.29,0,0,0,5,5.52c-.53,6.72-1.85,10.14-6.59,10.14-7.62,0-8.76-9.72-8.94-24.89h-23.1v-7.56Z"/><path d="M415.39,398.25H396.31V408H386.9v-9.72H360.26v-8.52h26.63v-5.22H374.78c-3.06,0-6.66.36-7.2,1a80,80,0,0,0-3.24-8.94c1.85-.6,3-1.92,4.79-4.5a34.71,34.71,0,0,0,2.58-4.32h-10v-8.4h14.1a89.44,89.44,0,0,0,3.35-9.05l10.32,2.57c-.9,2.16-1.86,4.38-2.88,6.48h27.53v8.4h-32c-1.8,3.06-3.66,5.94-5.46,8.52h10.26v-7.14h9.41v7.14h13.85v8.28H396.31v5.22h19.07Z"/><path d="M439.5,398.9c0,3.12-.42,5.22-2.16,6.48s-4.08,1.44-7.25,1.44a26.8,26.8,0,0,0-1.87-7.26c1.44.06,3.06.06,3.66.06s.72-.24.72-.9V388.65h-4.32c-.42,6.78-1.38,13.73-3.23,19a27.19,27.19,0,0,0-6.36-3.47c2.81-8.22,3-20.34,3-29V353.26h17.81Zm-6.9-18.11v-6h-3.9v.3c0,1.74,0,3.66-.06,5.7Zm-3.91-19.67v5.81h3.9v-5.81Zm37,34.05a20.1,20.1,0,0,0,10.5,5.76,30.59,30.59,0,0,0-5.34,7,22.1,22.1,0,0,1-12.24-9.65c-2.39,4.25-6.71,7.5-14.51,9.72a21.67,21.67,0,0,0-4.5-6.72c6-1.5,9.24-3.48,11.1-6.12h-9.6v-7.26H453c.06-.72.18-1.5.24-2.28h-9.48V365.85h29v19.79h-11c-.12.78-.18,1.56-.24,2.28h13.14v7.26Zm-18.12-33.58h-6.66v-6.9h6.66V351h7.86v3.72h5.1V351h7.85v3.72h7.13v6.9h-7.14v3.18h-7.86v-3.18h-5.1v3.18h-7.85Zm4,11.52h13.13v-1.62H451.49Zm0,6.89h13.14v-1.62H451.49Z"/><path d="M91,436.39h7.81c8.28,0,13.76,4,13.76,13.46s-5.47,13.73-13.39,13.73H91.05Zm7.42,21.93c4.37,0,7.48-2,7.47-8.47s-3.1-8.24-7.48-8.24h-.88v16.71Z"/><path d="M112.76,459.09l4.42-3.33c.95,1.86,2.33,2.7,3.65,2.7,2.11,0,3.24-1.06,3.24-4.6V436.38h6.53v18c0,5.33-2.81,9.71-8.91,9.71C117.47,464.08,114.7,462.44,112.76,459.09Z"/><path d="M135.46,450.14c0-9.05,6-14.24,12.95-14.24a11.56,11.56,0,0,1,8.25,3.54l-3.39,4.16a6.9,6.9,0,0,0-4.75-2.12c-3.5,0-6.38,3.14-6.38,8.44s2.48,8.53,6.31,8.53a7,7,0,0,0,5.19-2.48l3.43,4.09a11.31,11.31,0,0,1-8.87,4C141.3,464.08,135.46,459.33,135.46,450.14Z"/><path d="M166,436.37h7.81l8.44,27.18h-6.86l-1.58-6.24h-8l-1.57,6.24h-6.64Zm1,15.91h5.55L172,450c-.73-2.7-1.43-6-2.16-8.72h-.15c-.65,2.84-1.38,6-2.07,8.72Z"/><path d="M185.12,436.36h10c5.8,0,10.62,2,10.62,8.57,0,4-1.86,6.53-4.67,7.85l6.06,10.76h-7.3l-5-9.57h-3.14v9.56h-6.54Zm9.46,12.48c3.1,0,4.78-1.35,4.78-3.91s-1.68-3.39-4.78-3.39h-2.92v7.3Z"/><path d="M208.67,460.15l3.72-4.49a10.82,10.82,0,0,0,6.57,2.77c2.41,0,3.54-.91,3.54-2.37S221,454,218.67,453l-3.47-1.46c-2.85-1.13-5.51-3.5-5.51-7.44,0-4.56,4.08-8.21,9.85-8.21a12.58,12.58,0,0,1,8.83,3.57l-3.24,4.09a8.85,8.85,0,0,0-5.59-2.08c-2,0-3.21.8-3.21,2.23s1.68,2.11,4.09,3.06l3.39,1.35c3.36,1.35,5.37,3.61,5.37,7.44,0,4.53-3.79,8.51-10.36,8.51A15.21,15.21,0,0,1,208.67,460.15Z"/><path d="M242.06,436.34h9.56c5.95,0,10.87,2.15,10.88,8.86,0,6.46-5,9.31-10.73,9.31H248.6v9h-6.53Zm9.38,13c3.18,0,4.71-1.5,4.71-4.16s-1.76-3.69-4.89-3.69h-2.67v7.85Z"/><path d="M267.13,436.33h10c5.81,0,10.62,2,10.63,8.57,0,4-1.86,6.54-4.67,7.85l6.06,10.77h-7.3l-5-9.56h-3.14v9.56h-6.53Zm9.46,12.48c3.1,0,4.78-1.35,4.78-3.9s-1.68-3.4-4.79-3.4h-2.92v7.3Z"/><path d="M291.73,449.79c0-8.9,5-13.94,12.44-13.94s12.45,5.07,12.45,13.93-5,14.24-12.44,14.24S291.73,458.7,291.73,449.79Zm18.25,0c0-5.26-2.23-8.36-5.81-8.36s-5.76,3.11-5.76,8.36,2.19,8.61,5.77,8.61S310,455,310,449.79Z"/><path d="M325.71,441.75h-7.34v-5.44h21.24v5.44h-7.37V463.5h-6.54Z"/><path d="M343.81,436.31H361v5.44H350.34v5h9.09v5.47h-9.09V458h11.09v5.47H343.82Z"/><path d="M365.56,450.06c0-9.05,6.06-14.23,12.95-14.24a11.56,11.56,0,0,1,8.25,3.54l-3.39,4.16a6.89,6.89,0,0,0-4.75-2.11c-3.5,0-6.38,3.14-6.38,8.43s2.49,8.54,6.32,8.54a7,7,0,0,0,5.18-2.49l3.43,4.09a11.32,11.32,0,0,1-8.87,4C371.41,464,365.57,459.26,365.56,450.06Z"/><path d="M395.92,441.73h-7.33v-5.44h21.24v5.43h-7.37v21.75h-6.53Z"/><path d="M414,436.29h6.54v27.19H414Z"/><path d="M425.56,449.75c0-8.91,5-13.94,12.44-13.95s12.45,5.07,12.45,13.94S445.42,464,438,464,425.56,458.65,425.56,449.75Zm18.25,0c0-5.25-2.23-8.35-5.81-8.35s-5.76,3.1-5.76,8.36,2.19,8.61,5.77,8.61S443.81,455,443.81,449.74Z"/><path d="M455.48,436.27h6.65l6.75,13,2.67,6h.18a94,94,0,0,1-.88-10v-9h6.2v27.19h-6.64l-6.72-13.1L461,444.41h-.18c.29,3,.84,6.75.84,10v9h-6.21Z"/></g></g></svg>