<svg xmlns="http://www.w3.org/2000/svg" viewBox="0 0 30 30"><defs><style>.cls-1{fill:#405cff;}.cls-2,.cls-3,.cls-4{fill:#fff;}.cls-3,.cls-4{stroke:#405cff;stroke-miterlimit:10;}.cls-3{stroke-width:0.47px;}.cls-4{stroke-linecap:round;stroke-width:0.47px;}</style></defs><g id="图层_2" data-name="图层 2"><g id="图层_1-2" data-name="图层 1"><rect class="cls-1" width="30" height="30" rx="15"/><path class="cls-2" d="M14.88,5.13a1.85,1.85,0,0,0-1.08.35L5.3,11.66a1.83,1.83,0,0,0-.67,2.06L6.47,19.4v.05l-.63,4.1A1.15,1.15,0,0,0,7,24.87h3.3a1.34,1.34,0,0,0,1.16-.68l.55-1a.11.11,0,0,1,.1-.06h5.61a.1.1,0,0,1,.09.06l.55,1a1.35,1.35,0,0,0,1.17.68h3.29a1.15,1.15,0,0,0,1.13-1.32l-.63-4.1a.07.07,0,0,1,0-.05l1.84-5.68a1.85,1.85,0,0,0-.68-2.06L16,5.48a1.89,1.89,0,0,0-1.09-.35Z"/><path class="cls-1" d="M14.88,20.33a5,5,0,0,1-2.82-.72.24.24,0,0,1-.05-.33.24.24,0,0,1,.33-.05,4.72,4.72,0,0,0,2.54.62,3.67,3.67,0,0,0,2.32-.6.24.24,0,0,1,.33.35A4,4,0,0,1,14.88,20.33Z"/><circle class="cls-3" cx="19.17" cy="14.27" r="3.55"/><path class="cls-4" d="M16.8,14.27a2.36,2.36,0,0,1,2.37-2.36"/><line class="cls-3" x1="21.81" y1="16.98" x2="23.74" y2="18.98"/><circle class="cls-3" cx="24.46" cy="19.42" r="1.48"/></g></g></svg>