<?xml version="1.0" encoding="UTF-8"?>
<svg width="30px" height="30px" viewBox="0 0 30 30" version="1.1" xmlns="https://www.w3.org/2000/svg" xmlns:xlink="https://www.w3.org/1999/xlink">
    <!-- Generator: Sketch 63.1 (92452) - https://sketch.com -->
    <title>icon/logo_app</title>
    <desc>Created with Sketch.</desc>
    <g id="icon/logo_app" stroke="none" stroke-width="1" fill="none" fill-rule="evenodd">
        <g>
            <rect id="矩形" x="0" y="0" width="30" height="30"></rect>
            <path d="M21,4 C22.1045695,4 23,4.8954305 23,6 L23,24 C23,25.1045695 22.1045695,26 21,26 L9,26 C7.8954305,26 7,25.1045695 7,24 L7,6 C7,4.8954305 7.8954305,4 9,4 L21,4 Z M15,22 C14.4477153,22 14,22.4477153 14,23 C14,23.5522847 14.4477153,24 15,24 C15.5522847,24 16,23.5522847 16,23 C16,22.4477153 15.5522847,22 15,22 Z M20,6 L10,6 C9.44771525,6 9,6.44771525 9,7 L9,7 L9,19 C9,19.5522847 9.44771525,20 10,20 L10,20 L20,20 C20.5522847,20 21,19.5522847 21,19 L21,19 L21,7 C21,6.44771525 20.5522847,6 20,6 L20,6 Z" id="形状结合" fill="#FF8022"></path>
        </g>
    </g>
</svg>
