<svg xmlns="http://www.w3.org/2000/svg" xmlns:xlink="http://www.w3.org/1999/xlink" viewBox="0 0 566.93 566.93"><defs><style>.cls-1{fill:none;}.cls-2{clip-path:url(#clip-path);}.cls-3{fill:#ededed;}.cls-4{fill:#010101;}.cls-5{fill:#0b0606;}.cls-6{fill:#0a0505;}.cls-7{fill:#0a0606;}.cls-8{fill:#0a0707;}.cls-9{fill:#070606;}.cls-10{fill:#050404;}.cls-11{fill:#0f0d0d;}.cls-12{fill:#ff8022;}.cls-13{fill:#ececec;}.cls-14{fill:#ebebeb;}.cls-15{fill:#e8e9e9;}.cls-16{fill:#fff;}</style><clipPath id="clip-path"><rect class="cls-1" width="566.93" height="566.93" rx="283.46"/></clipPath></defs><g id="图层_2" data-name="图层 2"><g id="图层_1-2" data-name="图层 1"><g class="cls-2"><path class="cls-3" d="M566.93,566.93H0V0H566.93ZM360.1,348.4c6.64,0,13.29,0,19.94,0a32.92,32.92,0,0,0,7.47-.85,30.37,30.37,0,0,0,22.85-34.23c-.68-4-1.23-8.06-1.84-12.1l-2.7-17.57q-1.21-7.87-2.42-15.75a5,5,0,0,1,.22-2.36q10.53-32.37,21-64.77A38.9,38.9,0,0,0,410.24,157l-73.93-53.72q-14.87-10.78-29.72-21.58a38.93,38.93,0,0,0-46,0Q233,101.76,205.44,121.78L157,157a38.77,38.77,0,0,0-14.28,44q3.12,9.6,6.23,19.2,7.35,22.72,14.72,45.44a4.41,4.41,0,0,1,.21,2.22c-.29,1.58-.49,3.19-.73,4.78l-3,19.54c-1,6.56-2,13.13-3,19.69a32.69,32.69,0,0,0,.36,13.68A30.29,30.29,0,0,0,187,348.4q19.72,0,39.45,0a37.76,37.76,0,0,0,4.12-.2,32.84,32.84,0,0,0,26.19-18.62c.86-1.79,1.95-2.3,3.92-2.28,15.76.09,31.52.06,47.28,0a1.79,1.79,0,0,1,1.88,1.08,48.23,48.23,0,0,0,3.21,5.53c6.57,9.34,15.59,14.2,27,14.44C346.71,348.51,353.4,348.4,360.1,348.4Zm33.63,105.81c-.19-.47-.29-.73-.41-1-4.41-9.58-8.36-19.36-13.09-28.81,0,0,.09-.11.18-.14,5.94-2.14,9-6.45,9-12.72,0-3.32,0-6.65,0-10a13.71,13.71,0,0,0-.4-3.38,14.2,14.2,0,0,0-14.16-10.94q-16.45,0-32.9,0h-.71c-.42,0-.61.19-.61.59,0,.24,0,.48,0,.72,0,6.07-.07,12.15-.06,18.22q0,19.31.06,38.59,0,3.63,0,7.26a3,3,0,0,0,.15,1.49H351c.34,0,.52-.15.52-.51s0-.76,0-1.14q0-13,0-26.06a2.51,2.51,0,0,1,.18-1.54c4.64.07,9.29.08,13.94.24a6.32,6.32,0,0,1,5,2.65,13.85,13.85,0,0,1,1.51,2.57q2.25,4.92,4.52,9.82,3,6.51,6.07,13c.23.49.32,1.07,1.13,1.06C387.07,454.18,390.29,454.21,393.73,454.21Zm-273.61-33.1v32.18c0,1.09,0,1.09,1.06,1.11h23.35a26.31,26.31,0,0,0,13-3.19c9.05-5,14.18-12.68,14.85-23.06.28-4.4.17-8.83.08-13.24A26.76,26.76,0,0,0,165.21,397c-5.74-6.27-13-9.18-21.42-9.19q-11,0-22.07,0c-1.73,0-1.6-.31-1.6,1.58ZM333.3,454.38a2.24,2.24,0,0,0-.18-1.33q-8.76-29.79-17.52-59.59a7.89,7.89,0,0,0-8-6H296.74a7.92,7.92,0,0,0-8.1,6.07Q279.9,423.29,271.16,453a2.22,2.22,0,0,0-.22,1.25,2.93,2.93,0,0,0,1.38.1q4.06,0,8.12,0c1.82,0,1.41.23,1.9-1.39q2.66-8.92,5.27-17.86c.38-1.32.44-1.15,1.55-1.15h25.92c1.25,0,1.25,0,1.62,1.25q2.51,8.52,5,17c.61,2.1.61,2.1,2.8,2.1Zm64.3-.06c.35,0,.54.06.73.06,12,0,23.93.07,35.89,0a13,13,0,0,0,12.89-13c-.06-4.75,0-9.49,0-14.24a12.83,12.83,0,0,0-.25-2.69A13.11,13.11,0,0,0,434,414.1c-6.79.09-13.58,0-20.37,0a10.86,10.86,0,0,1-2-.13,4.44,4.44,0,0,1-3.72-4.25c0-2.71,0-5.41,0-8.12a4.42,4.42,0,0,1,3.86-4.26,12.17,12.17,0,0,1,1.71-.07h30.19c1.42,0,1.33.09,1.33-1.29,0-2.28,0-4.56,0-6.84,0-1.82.18-1.6-1.58-1.6H411.13c-.85,0-1.71.05-2.55.13a12.91,12.91,0,0,0-11.48,12c-.17,3.94-.12,7.88,0,11.82A12.07,12.07,0,0,0,400,419a13,13,0,0,0,10.61,4.87h16.81c1.47,0,2.94,0,4.41,0a4.42,4.42,0,0,1,4.42,4.46q.06,6,0,12a4.26,4.26,0,0,1-2.72,4,5.76,5.76,0,0,1-2.5.42H399.35c-.33,0-.66,0-1,0-.54,0-.77.15-.77.72C397.61,448.32,397.6,451.26,397.6,454.32ZM267.9,387.55c-.4,0-.64-.05-.87-.05-6.65,0-13.29,0-19.94,0a26.83,26.83,0,0,0-5.36.59,28.75,28.75,0,0,0-22.89,28.15c0,2.94,0,5.88,0,8.82a33,33,0,0,0,.51,5.95c2.25,13,14,23.12,27.14,23.35,6.78.12,13.57,0,20.36,0,1,0,1,0,1-1.12,0-2.42,0-4.84,0-7.27,0-1.48.07-1.31-1.28-1.31h-15a28.75,28.75,0,0,1-3.83-.24,21.24,21.24,0,0,1-18-18.79,70.32,70.32,0,0,1-.1-7.68,20.54,20.54,0,0,1,5.43-13.72,20.79,20.79,0,0,1,15.75-7c5.13-.05,10.25,0,15.38,0h1c.41,0,.59-.16.59-.58C267.89,393.66,267.9,390.68,267.9,387.55Zm-55.13,25.06v-3.56q0-10.05,0-20.08c0-1.19,0-1.2-1.12-1.21H203c-1,0-1.06,0-1.07,1.11,0,2.33,0,4.65,0,7V433.3a11.1,11.1,0,0,1-11.29,11.39l-18.37,0c-1,0-1,0-1.05,1,0,2.56,0,5.13,0,7.69,0,1,0,1.05,1,1.05,7.32,0,14.63.1,21.94,0a19.09,19.09,0,0,0,18.67-19.11Q212.78,423.92,212.77,412.61Zm93.14,79.89c2.59-1,3-3,2.74-5.22,0-.24-.06-.48-.1-.71a3.77,3.77,0,0,0-2.35-3,8.33,8.33,0,0,0-3.18-.68c-2.42,0-4.84,0-7.26,0-.69,0-.89.21-.89.9q0,9.24,0,18.5c0,.67.18.91.88.89,2.51-.05,5,0,7.54-.07a8.4,8.4,0,0,0,3.44-.79,4,4,0,0,0,2.23-2.45,7.5,7.5,0,0,0,.13-4.35,3.64,3.64,0,0,0-1.89-2.37C306.87,492.94,306.53,492.79,305.91,492.5Zm-13.54,10.63c-.53-1.42-1-2.7-1.47-4-1.9-5.1-3.81-10.2-5.67-15.31-.27-.73-.59-1.07-1.41-1-1,.09-2,0-3,0-1.16,0-1.17,0-1.59,1.13l-4.71,12.63c-.8,2.12-1.59,4.24-2.43,6.5,1.08,0,2,0,3,0,.7,0,1.11-.13,1.33-.9.37-1.27.92-2.48,1.32-3.74a1,1,0,0,1,1.13-.78c2.23,0,4.46,0,6.69,0a1,1,0,0,1,1.2.87c.4,1.31.89,2.59,1.33,3.89.13.38.28.67.78.66C290,503.11,291.1,503.13,292.37,503.13Zm-33.67,0h1.38c2.7,0,5.41,0,8.11,0,.79,0,1.81.35,2.31-.2s.08-1.54.16-2.34-.18-.9-.87-.89c-2.14,0-4.27,0-6.41,0-1,0-1,0-1-1,0-4.23,0-8.45,0-12.68a8.59,8.59,0,0,0-.17-3.07,12.51,12.51,0,0,0-3.51,0C258.52,484.19,258.52,501.78,258.7,503.13Zm-20.78-7.46c2.28,0,4.54,0,6.8,0s1.93.36,1.95-1.93c0-1.11,0-1.12-1.2-1.12H239c-.35,0-.74-.12-1.12.2A11.48,11.48,0,0,0,237.92,495.67Zm87.13,0h2.28c2.24,0,2.21,0,2.15-2.18,0-.69-.23-.9-.91-.89-1.94,0-3.88,0-5.83,0-2.36,0-2.34,0-2.15,2.32,0,.55.23.75.77.74C322.59,495.66,323.82,495.67,325.05,495.67Z"/><path class="cls-4" d="M360.1,348.4c-6.7,0-13.39.11-20.08,0-11.41-.24-20.43-5.1-27-14.44a48.23,48.23,0,0,1-3.21-5.53,1.79,1.79,0,0,0-1.88-1.08c-15.76,0-31.52.06-47.28,0-2,0-3.06.49-3.92,2.28a32.84,32.84,0,0,1-26.19,18.62,37.76,37.76,0,0,1-4.12.2q-19.72,0-39.45,0a30.29,30.29,0,0,1-29.54-22.88,32.69,32.69,0,0,1-.36-13.68c1.07-6.56,2-13.13,3-19.69l3-19.54c.24-1.59.44-3.2.73-4.78a4.41,4.41,0,0,0-.21-2.22q-7.38-22.71-14.72-45.44-3.1-9.6-6.23-19.2A38.77,38.77,0,0,1,157,157l48.48-35.22q27.59-20,55.16-40.08a38.93,38.93,0,0,1,46,0q14.88,10.77,29.72,21.58L410.24,157a38.9,38.9,0,0,1,14.38,43.81q-10.49,32.39-21,64.77a5,5,0,0,0-.22,2.36q1.22,7.88,2.42,15.75l2.7,17.57c.61,4,1.16,8.08,1.84,12.1a30.37,30.37,0,0,1-22.85,34.23,32.92,32.92,0,0,1-7.47.85C373.39,348.39,366.74,348.4,360.1,348.4Zm.1-16.23h19.37a17.32,17.32,0,0,0,4.24-.45,14.17,14.17,0,0,0,10.41-16.47c-1.11-6.44-2-12.92-3-19.38Q389.05,282,387,268.18a9.13,9.13,0,0,1,.12-4.46c2.55-7.55,4.95-15.14,7.41-22.72l14.73-45.46a21.55,21.55,0,0,0,.91-9.56,22.78,22.78,0,0,0-9.66-16q-22-15.9-43.9-31.88-29.71-21.58-59.43-43.2a23,23,0,0,0-27,0q-51.79,37.71-103.66,75.34a22.56,22.56,0,0,0-8.33,25.65q10.83,33.5,21.73,67a11.07,11.07,0,0,1,.4,5.41c-1.33,8.38-2.61,16.77-3.9,25.16q-1.68,10.95-3.37,21.92a14.91,14.91,0,0,0,.07,5.65,14,14,0,0,0,14.12,11.15c13.19,0,26.39.06,39.59,0,6.57,0,11.53-3,14.79-8.74,2.11-3.71,4.21-7.43,6.27-11.17a1.83,1.83,0,0,1,1.85-1.16q33.9.06,67.79,0a1.84,1.84,0,0,1,1.88,1.11c2,3.66,4.09,7.28,6.12,10.93,3.37,6.09,8.56,9,15.48,9Z"/><path class="cls-5" d="M393.73,454.21c-3.44,0-6.66,0-9.88,0-.81,0-.9-.57-1.13-1.06q-3-6.5-6.07-13-2.26-4.9-4.52-9.82a13.85,13.85,0,0,0-1.51-2.57,6.32,6.32,0,0,0-5-2.65c-4.65-.16-9.3-.17-13.94-.24a2.51,2.51,0,0,0-.18,1.54q0,13,0,26.06c0,.38,0,.76,0,1.14s-.18.51-.52.51H340.78a3,3,0,0,1-.15-1.49q0-3.63,0-7.26,0-19.29-.06-38.59c0-6.07,0-12.15.06-18.22,0-.24,0-.48,0-.72,0-.4.19-.61.61-.59h.71q16.46,0,32.9,0A14.2,14.2,0,0,1,389,398.21a13.71,13.71,0,0,1,.4,3.38c0,3.32,0,6.65,0,10,0,6.27-3,10.58-9,12.72-.09,0-.15.12-.18.14,4.73,9.45,8.68,19.23,13.09,28.81C393.44,453.48,393.54,453.74,393.73,454.21Zm-31.64-39.1h8.68a13.33,13.33,0,0,0,4.21-.61,5.78,5.78,0,0,0,4-4.23,16.3,16.3,0,0,0-.15-8.71,5.75,5.75,0,0,0-3.69-3.86,12.69,12.69,0,0,0-4.48-.7H352.62c-1.09,0-1.11,0-1.11,1.06,0,5.31,0,10.63,0,15.94,0,1.25,0,1.11,1.19,1.11Z"/><path class="cls-6" d="M120.12,421.11V389.37c0-1.89-.13-1.58,1.6-1.58q11,0,22.07,0c8.45,0,15.68,2.92,21.42,9.19a26.76,26.76,0,0,1,7.23,17.93c.09,4.41.2,8.84-.08,13.24-.67,10.38-5.8,18.05-14.85,23.06a26.31,26.31,0,0,1-13,3.19H121.18c-1,0-1.06,0-1.06-1.11V421.11ZM131,421v22.5c0,1.15,0,1.16,1.15,1.16,2.14,0,4.27,0,6.41,0a41,41,0,0,0,5.54-.2,20.17,20.17,0,0,0,17.48-20c0-2,0-3.89,0-5.84a26.59,26.59,0,0,0-.31-4.54,20.3,20.3,0,0,0-17.71-16.42c-3.27-.3-6.54-.11-9.81-.17h-2.14c-.41,0-.62.17-.61.59s0,.67,0,1Z"/><path class="cls-7" d="M333.3,454.38h-8.8c-2.19,0-2.19,0-2.8-2.1q-2.51-8.53-5-17c-.37-1.24-.37-1.25-1.62-1.25H289.16c-1.11,0-1.17-.17-1.55,1.15Q285,444.05,282.34,453c-.49,1.62-.08,1.37-1.9,1.39q-4.05,0-8.12,0a2.93,2.93,0,0,1-1.38-.1,2.22,2.22,0,0,1,.22-1.25q8.74-29.73,17.48-59.45a7.92,7.92,0,0,1,8.1-6.07h10.83a7.89,7.89,0,0,1,8,6q8.77,29.81,17.52,59.59A2.24,2.24,0,0,1,333.3,454.38Zm-19.86-30.19c-.72-2.42-1.39-4.69-2.05-6.95l-5.45-18.53c-.4-1.35-.57-1.47-2-1.48h-3.41c-1.72,0-1.77,0-2.26,1.7Q295.6,408,292.92,417c-.69,2.35-1.37,4.71-2.07,7.15Z"/><path class="cls-8" d="M397.6,454.32c0-3.06,0-6,0-8.94,0-.57.23-.76.77-.72.33,0,.66,0,1,0H431a5.76,5.76,0,0,0,2.5-.42,4.26,4.26,0,0,0,2.72-4q.07-6,0-12a4.42,4.42,0,0,0-4.42-4.46c-1.47-.05-2.94,0-4.41,0H410.56A13,13,0,0,1,400,419a12.07,12.07,0,0,1-2.86-7.43c-.11-3.94-.16-7.88,0-11.82a12.91,12.91,0,0,1,11.48-12c.84-.08,1.7-.13,2.55-.13h32.33c1.76,0,1.58-.22,1.58,1.6,0,2.28,0,4.56,0,6.84,0,1.38.09,1.29-1.33,1.29H413.53a12.17,12.17,0,0,0-1.71.07,4.42,4.42,0,0,0-3.86,4.26c0,2.71,0,5.41,0,8.12a4.44,4.44,0,0,0,3.72,4.25,10.86,10.86,0,0,0,2,.13c6.79,0,13.58.07,20.37,0a13.11,13.11,0,0,1,12.81,10.29,12.83,12.83,0,0,1,.25,2.69c0,4.75,0,9.49,0,14.24a13,13,0,0,1-12.89,13c-12,.1-23.93,0-35.89,0C398.14,454.38,398,454.35,397.6,454.32Z"/><path class="cls-7" d="M267.9,387.55c0,3.13,0,6.11,0,9.1,0,.42-.18.6-.59.58h-1c-5.13,0-10.25,0-15.38,0a20.79,20.79,0,0,0-15.75,7A20.54,20.54,0,0,0,229.75,418a70.32,70.32,0,0,0,.1,7.68,21.24,21.24,0,0,0,18,18.79,28.75,28.75,0,0,0,3.83.24h15c1.35,0,1.28-.17,1.28,1.31,0,2.43,0,4.85,0,7.27,0,1.1,0,1.12-1,1.12-6.79,0-13.58.09-20.36,0-13.14-.23-24.89-10.4-27.14-23.35a33,33,0,0,1-.51-5.95c0-2.94,0-5.88,0-8.82a28.75,28.75,0,0,1,22.89-28.15,26.83,26.83,0,0,1,5.36-.59c6.65,0,13.29,0,19.94,0C267.26,387.5,267.5,387.53,267.9,387.55Z"/><path class="cls-7" d="M212.77,412.61q0,11.33,0,22.64a19.09,19.09,0,0,1-18.67,19.11c-7.31.12-14.62,0-21.94,0-1,0-1,0-1-1.05,0-2.56,0-5.13,0-7.69,0-1,0-1,1.05-1l18.37,0a11.1,11.1,0,0,0,11.29-11.39V395.85c0-2.33,0-4.65,0-7,0-1.09,0-1.1,1.07-1.11h8.69c1.11,0,1.12,0,1.12,1.21q0,10,0,20.08Z"/><path class="cls-9" d="M305.91,492.5c.62.29,1,.44,1.29.61a3.64,3.64,0,0,1,1.89,2.37,7.5,7.5,0,0,1-.13,4.35,4,4,0,0,1-2.23,2.45,8.4,8.4,0,0,1-3.44.79c-2.51.05-5,0-7.54.07-.7,0-.88-.22-.88-.89q0-9.25,0-18.5c0-.69.2-.91.89-.9,2.42,0,4.84,0,7.26,0a8.33,8.33,0,0,1,3.18.68,3.77,3.77,0,0,1,2.35,3c0,.23.07.47.1.71C308.88,489.51,308.5,491.46,305.91,492.5Zm-4.69,1.74h-1.79c-.44,0-.7.1-.7.62,0,1.51,0,3,0,4.54,0,.42.18.59.59.58a20,20,0,0,0,4.24-.22,2.12,2.12,0,0,0,1.86-2.3c.08-1.72-.33-2.45-1.63-2.91A7.68,7.68,0,0,0,301.22,494.24ZM301,486h-1.72c-.32,0-.56.09-.56.46,0,1.47,0,2.93,0,4.4a.47.47,0,0,0,.5.54,11.94,11.94,0,0,0,4.21-.4c1.13-.4,1.48-1.11,1.42-2.62a2,2,0,0,0-1.63-2.17A9.47,9.47,0,0,0,301,486Z"/><path class="cls-10" d="M292.37,503.13c-1.27,0-2.4,0-3.53,0-.5,0-.65-.28-.78-.66-.44-1.3-.93-2.58-1.33-3.89a1,1,0,0,0-1.2-.87c-2.23,0-4.46,0-6.69,0a1,1,0,0,0-1.13.78c-.4,1.26-.95,2.47-1.32,3.74-.22.77-.63.93-1.33.9-.94,0-1.88,0-3,0,.84-2.26,1.63-4.38,2.43-6.5L279.24,484c.42-1.13.43-1.13,1.59-1.13,1,0,2,.06,3,0,.82-.07,1.14.27,1.41,1,1.86,5.11,3.77,10.21,5.67,15.31C291.37,500.43,291.84,501.71,292.37,503.13Zm-7.09-8.61c-1-2.86-1.94-5.55-2.89-8.24h-.32c-1,2.71-1.93,5.43-2.93,8.23Z"/><path class="cls-4" d="M258.7,503.13c-.18-1.35-.18-18.94,0-20.14a12.51,12.51,0,0,1,3.51,0,8.59,8.59,0,0,1,.17,3.07c0,4.23,0,8.45,0,12.68,0,1,0,1,1,1,2.14,0,4.27,0,6.41,0,.69,0,.94.21.87.89s.32,1.8-.16,2.34-1.52.19-2.31.2c-2.7,0-5.41,0-8.11,0Z"/><path class="cls-11" d="M237.92,495.67a11.48,11.48,0,0,1-.09-2.85c.38-.32.77-.19,1.12-.2h6.52c1.19,0,1.21,0,1.2,1.12,0,2.29.3,1.91-1.95,1.93S240.2,495.67,237.92,495.67Z"/><path class="cls-11" d="M325.05,495.67c-1.23,0-2.46,0-3.69,0-.54,0-.73-.19-.77-.74-.19-2.32-.21-2.32,2.15-2.32,1.95,0,3.89,0,5.83,0,.68,0,.88.2.91.89.06,2.18.09,2.18-2.15,2.18Z"/><path class="cls-12" d="M360.2,332.17H341c-6.92,0-12.11-2.95-15.48-9-2-3.65-4.12-7.27-6.12-10.93a1.84,1.84,0,0,0-1.88-1.11q-33.9,0-67.79,0a1.83,1.83,0,0,0-1.85,1.16c-2.06,3.74-4.16,7.46-6.27,11.17-3.26,5.73-8.22,8.71-14.79,8.74-13.2.07-26.4.05-39.59,0A14,14,0,0,1,173.08,321a14.91,14.91,0,0,1-.07-5.65q1.68-11,3.37-21.92c1.29-8.39,2.57-16.78,3.9-25.16a11.07,11.07,0,0,0-.4-5.41q-10.94-33.47-21.73-67a22.56,22.56,0,0,1,8.33-25.65q51.83-37.66,103.66-75.34a23,23,0,0,1,27,0q29.67,21.66,59.43,43.2,21.94,15.95,43.9,31.88a22.78,22.78,0,0,1,9.66,16,21.55,21.55,0,0,1-.91,9.56L394.48,241c-2.46,7.58-4.86,15.17-7.41,22.72a9.13,9.13,0,0,0-.12,4.46q2.12,13.85,4.25,27.69c1,6.46,1.91,12.94,3,19.38a14.17,14.17,0,0,1-10.41,16.47,17.32,17.32,0,0,1-4.24.45Zm-5.37-14.52h10.39a17.21,17.21,0,0,0,3.12-.25,15.9,15.9,0,0,0,13-18c-.46-3.39-1.06-6.75-1.57-10.12-1.57-10.27-3.11-20.54-4.71-30.8a4.4,4.4,0,0,1,.18-2.08q1.49-4.53,3-9.06,7.78-24,15.56-48a22.74,22.74,0,0,0-1-16.92,24.93,24.93,0,0,0-8.57-9.88q-27.57-20-55.07-40l-31.68-23a23.18,23.18,0,0,0-27.62-.06Q226,141.29,182.08,173.18a23.06,23.06,0,0,0-8.59,26.25q5,15.58,10.08,31.14l8.34,25.7a4,4,0,0,1,.28,1.94c-.55,3.28-1,6.56-1.55,9.84q-2.28,14.83-4.55,29.67a20.06,20.06,0,0,0-.25,6.23,16,16,0,0,0,16.06,13.7c6.65,0,13.29,0,19.94,0a17.73,17.73,0,0,0,16.22-9.5c1.37-2.38,2.74-4.77,4-7.2A1.83,1.83,0,0,1,244,299.8q39.24,0,78.48,0a1.83,1.83,0,0,1,1.87,1.14c1.37,2.55,2.77,5.09,4.26,7.57a17.64,17.64,0,0,0,15.86,9.13C347.89,317.69,351.36,317.65,354.83,317.65Z"/><path class="cls-13" d="M362.09,415.11H352.7c-1.22,0-1.19.14-1.19-1.11,0-5.31,0-10.63,0-15.94,0-1,0-1.06,1.11-1.06h18.07a12.69,12.69,0,0,1,4.48.7,5.75,5.75,0,0,1,3.69,3.86,16.3,16.3,0,0,1,.15,8.71,5.78,5.78,0,0,1-4,4.23,13.33,13.33,0,0,1-4.21.61Z"/><path class="cls-13" d="M131,421V399.1c0-.33,0-.67,0-1s.2-.59.61-.59h2.14c3.27.06,6.54-.13,9.81.17a20.3,20.3,0,0,1,17.71,16.42,26.59,26.59,0,0,1,.31,4.54c0,1.95,0,3.89,0,5.84a20.17,20.17,0,0,1-17.48,20,41,41,0,0,1-5.54.2c-2.14,0-4.27,0-6.41,0-1.13,0-1.14,0-1.15-1.16V421Z"/><path class="cls-14" d="M313.44,424.19H290.85c.7-2.44,1.38-4.8,2.07-7.15q2.67-9.06,5.35-18.11c.49-1.65.54-1.7,2.26-1.7h3.41c1.43,0,1.6.13,2,1.48l5.45,18.53C312.05,419.5,312.72,421.77,313.44,424.19Z"/><path class="cls-15" d="M301.22,494.24a7.68,7.68,0,0,1,2.58.31c1.3.46,1.71,1.19,1.63,2.91a2.12,2.12,0,0,1-1.86,2.3,20,20,0,0,1-4.24.22c-.41,0-.59-.16-.59-.58,0-1.51,0-3,0-4.54,0-.52.26-.64.7-.62Z"/><path class="cls-15" d="M301,486a9.47,9.47,0,0,1,2.22.21,2,2,0,0,1,1.63,2.17c.06,1.51-.29,2.22-1.42,2.62a11.94,11.94,0,0,1-4.21.4.47.47,0,0,1-.5-.54c0-1.47,0-2.93,0-4.4,0-.37.24-.46.56-.46Z"/><path class="cls-15" d="M285.28,494.52h-6.14c1-2.8,2-5.52,2.93-8.23h.32C283.34,489,284.28,491.66,285.28,494.52Z"/><path class="cls-16" d="M354.83,317.65c-3.47,0-6.94,0-10.4,0a17.64,17.64,0,0,1-15.86-9.13c-1.49-2.48-2.89-5-4.26-7.57a1.83,1.83,0,0,0-1.87-1.14q-39.24,0-78.48,0a1.83,1.83,0,0,0-1.87,1.14c-1.29,2.43-2.66,4.82-4,7.2a17.73,17.73,0,0,1-16.22,9.5c-6.65.05-13.29,0-19.94,0A16,16,0,0,1,185.84,304a20.06,20.06,0,0,1,.25-6.23q2.29-14.84,4.55-29.67c.51-3.28,1-6.56,1.55-9.84a4,4,0,0,0-.28-1.94l-8.34-25.7q-5.06-15.57-10.08-31.14a23.06,23.06,0,0,1,8.59-26.25Q226,141.27,269.86,109.4a23.18,23.18,0,0,1,27.62.06l31.68,23q27.52,20,55.07,40a24.93,24.93,0,0,1,8.57,9.88,22.74,22.74,0,0,1,1,16.92q-7.76,24-15.56,48-1.47,4.53-3,9.06a4.4,4.4,0,0,0-.18,2.08c1.6,10.26,3.14,20.53,4.71,30.8.51,3.37,1.11,6.73,1.57,10.12a15.9,15.9,0,0,1-13,18,17.21,17.21,0,0,1-3.12.25Z"/></g></g></g></svg>